<svg xmlns="http://www.w3.org/2000/svg" viewBox="0 0 512 512">
  <defs>
    <linearGradient id="bg" x1="0" y1="0" x2="1" y2="1">
      <stop offset="0%" stop-color="#f2d8a7"/>
      <stop offset="100%" stop-color="#b97743"/>
    </linearGradient>
  </defs>
  <rect width="512" height="512" rx="110" fill="url(#bg)"/>
  <path d="M120 334c62-14 99-8 136 10 44 22 90 19 136-11v52c-39 24-84 31-133 24-33-5-65-18-98-22-14-2-28-1-41 2v-55z" fill="#3f4e36"/>
  <path d="M144 172c22-28 58-44 95-44s73 16 95 44l-39 31c-12-16-33-25-56-25s-44 9-56 25l-39-31z" fill="#3f4e36"/>
  <circle cx="256" cy="258" r="48" fill="#2f3c28"/>
  <path d="M256 218c10 16 10 46 0 62-10-16-10-46 0-62z" fill="#f2d8a7"/>
</svg>
